<?xml version="1.0" encoding="utf-8"?>
<!-- Generator: Adobe Illustrator 13.0.0, SVG Export Plug-In . SVG Version: 6.00 Build 14948)  -->
<!DOCTYPE svg PUBLIC "-//W3C//DTD SVG 1.1//EN" "http://www.w3.org/Graphics/SVG/1.1/DTD/svg11.dtd">
<svg version="1.1" id="Layer_1" xmlns="http://www.w3.org/2000/svg" xmlns:xlink="http://www.w3.org/1999/xlink" x="0px" y="0px"
	 width="663px" height="792px" viewBox="-27.5 -0.5 663 792" enable-background="new -27.5 -0.5 663 792" xml:space="preserve">
<rect x="-27.5" y="-0.5" fill="#FFFFFF" width="660" height="792"/>
<g>
	<path fill="#000012" d="M573.422,63.075c-2.057-1.139-5.368-1.719-9.914-1.719h-7.002v16.695h7.393c3.47,0,6.074-0.348,7.814-1.034
		c3.196-1.266,4.799-3.66,4.799-7.203c0-3.354-1.033-5.6-3.101-6.739 M564.584,55.819c5.769,0,9.987,0.549,12.688,1.667
		c4.809,1.972,7.203,5.864,7.203,11.664c0,4.124-1.509,7.15-4.524,9.091c-1.614,1.034-3.86,1.772-6.718,2.236
		c3.638,0.58,6.296,2.078,7.973,4.524c1.688,2.437,2.531,4.809,2.531,7.119v3.364c0,1.086,0.042,2.215,0.126,3.428
		c0.063,1.213,0.201,2.014,0.401,2.404l0.284,0.57h-7.678c-0.042-0.148-0.073-0.306-0.115-0.454
		c-0.043-0.147-0.074-0.327-0.116-0.517l-0.169-1.477V95.79c0-5.315-1.466-8.827-4.377-10.536c-1.74-0.991-4.777-1.476-9.111-1.476
		h-6.455v18.108h-8.194V55.819h16.263H564.584z M539.663,53.468c-7.076,7.045-10.62,15.566-10.62,25.532
		c0,9.966,3.512,18.636,10.557,25.702c7.077,7.098,15.672,10.63,25.786,10.63c10.113,0,18.698-3.543,25.774-10.63
		c7.088-7.077,10.631-15.64,10.631-25.702c0-10.061-3.543-18.487-10.631-25.532c-7.107-7.087-15.703-10.631-25.774-10.631
		C555.313,42.837,546.771,46.381,539.663,53.468 M595.379,108.72c-8.269,8.236-18.256,12.339-29.982,12.339
		c-11.728,0-21.705-4.103-29.931-12.339c-8.194-8.194-12.286-18.108-12.286-29.762c0-11.653,4.134-21.409,12.392-29.593
		c8.236-8.163,18.171-12.244,29.825-12.244c11.653,0,21.715,4.071,29.982,12.244c8.269,8.152,12.402,18.002,12.402,29.593
		S603.647,100.494,595.379,108.72"/>
	<path fill="#0774BB" d="M305.821,468.653c63.658,0,115.26-51.128,115.26-114.164c0-63.035-51.603-114.184-115.26-114.184
		c-63.657,0-115.26,51.118-115.26,114.184C190.561,417.557,242.164,468.653,305.821,468.653"/>
	<path fill="#0774BB" d="M495,612.336c-45.645-53.449-112.444-85.879-188.652-85.879s-143.313,33.4-188.947,86.1L495,612.336z"/>
	<path fill="#0774BB" d="M116.905,612.072c37.218-59.523,47.701-132.472,24.141-204.271C117.696,336.583,64.712,283.102,0,256.399
		l116.905,355.663V612.072z"/>
	<path fill="#0774BB" d="M0.548,256.336c68.646,16.663,141.911,4.007,203.585-40.371c61.147-44.01,96.129-110.451,101.771-179.667
		L0.548,256.336z"/>
	<path fill="#0774BB" d="M306.39,36.235c5.2,69.827,39.992,134.95,101.667,179.308c61.157,44.02,135.762,56.433,203.943,40.371
		L306.39,36.235z"/>
	<path fill="#0774BB" d="M611.947,256.515c-65.439,26.46-117.19,79.371-140.751,151.18
		c-23.359,71.209-12.233,145.328,24.278,204.608l116.462-355.789H611.947z"/>
</g>
<polygon points="362.138,657.241 328.158,701.04 328.158,657.347 294.789,657.347 294.789,755.332 328.158,755.332 328.158,705.396 
	367.506,755.48 410.946,755.48 367.422,702.696 406.242,657.241 "/>
<polygon points="209.312,657.347 166.578,755.438 233.399,755.438 244.051,728.945 214.237,728.945 230.594,693.5 255.02,755.438 
	293.176,755.438 250.653,657.347 "/>
<polygon points="131.333,657.263 131.333,692.825 90.614,692.825 90.614,657.263 57.298,657.263 57.298,755.364 90.614,755.364 
	90.614,719.476 120.576,719.476 131.259,693.668 131.259,755.438 165.197,754.995 165.197,656.819 "/>
<g>
	<path d="M533.757,728.439c5.358,0,9.692-4.292,9.692-9.597v-26.028c0-5.295-4.334-9.598-9.692-9.598h-21.672
		c-5.337,0-9.692,4.304-9.692,9.598v26.028c0,5.305,4.355,9.597,9.692,9.597H533.757z M496.529,755.765
		c-16.063,0-29.087-12.897-29.087-28.822v-42.091c0-15.914,13.014-28.822,29.087-28.822h52.71c16.062,0,29.087,12.908,29.087,28.822
		v42.091c0,15.925-13.025,28.822-29.087,28.822H496.529L496.529,755.765z"/>
</g>
<polygon points="425.647,661.776 390.623,702.644 431.036,750.903 465.86,750.903 426.449,703.097 460.65,661.776 "/>
<g>
	<polygon fill="#0774BB" points="431.943,752.686 388.303,702.496 426.122,659.994 463.931,659.994 426.986,702.971 
		469.563,752.686 	"/>
</g>
</svg>
