<?xml version="1.0" encoding="utf-8"?>
<!-- Generator: Adobe Illustrator 13.0.0, SVG Export Plug-In . SVG Version: 6.00 Build 14948)  -->
<!DOCTYPE svg PUBLIC "-//W3C//DTD SVG 1.1//EN" "http://www.w3.org/Graphics/SVG/1.1/DTD/svg11.dtd">
<svg version="1.1" id="Layer_1" xmlns="http://www.w3.org/2000/svg" xmlns:xlink="http://www.w3.org/1999/xlink" x="0px" y="0px"
	 width="131.75px" height="57.5px" viewBox="-7.25 -7 131.75 57.5" enable-background="new -7.25 -7 131.75 57.5"
	 xml:space="preserve">
<title>logo/color</title>
<desc>Created with Sketch.</desc>
<g id="Symbols">
	<g id="logo_x2F_color_1_">
		<g id="LincolnElectric-Logo_1_">
			<path id="Path" fill="#FFFFFF" d="M15.355,36.027c0.03,2.697,2.234,4.861,4.927,4.839h90.526
				c2.691,0.022,4.896-2.142,4.924-4.839V21.604c-0.028-2.697-2.232-4.862-4.924-4.839h-9.961V5.786
				c0-2.639-2.201-4.786-4.909-4.786H4.909C2.204,1,0,3.147,0,5.786v13.767c0,2.639,2.204,4.783,4.909,4.783h10.462L15.355,36.027z"
				/>
			<g id="logo_x2F_color" transform="translate(0.233026, 0.366221)">
				<g id="LincolnElectric-Logo" transform="translate(0.266974, 0.133779)">
					<path id="Path_1_" fill="#FFFFFF" d="M15.355,35.027c0.03,2.697,2.234,4.861,4.927,4.839h90.526
						c2.691,0.022,4.896-2.142,4.924-4.839V20.604c-0.028-2.697-2.232-4.862-4.924-4.839h-9.961V4.786
						c0-2.639-2.201-4.786-4.909-4.786H4.909C2.204,0,0,2.147,0,4.786v13.767c0,2.639,2.204,4.783,4.909,4.783h10.462L15.355,35.027
						z"/>
					<path id="Shape" fill="#FFFFFF" d="M104.104,10.436c1.136,0.028,2.037,0.968,2.018,2.106c-0.018,1.138-0.949,2.048-2.084,2.04
						c-1.137-0.009-2.053-0.935-2.053-2.073c-0.007-0.561,0.216-1.1,0.616-1.491C103.001,10.626,103.545,10.416,104.104,10.436z
						 M104.104,14.122c0.662,0.025,1.272-0.355,1.543-0.96c0.271-0.605,0.147-1.315-0.313-1.793
						c-0.459-0.478-1.162-0.628-1.775-0.38c-0.614,0.248-1.017,0.846-1.016,1.509c-0.018,0.426,0.14,0.84,0.434,1.148
						c0.295,0.308,0.701,0.482,1.127,0.483V14.122z M103.281,11.33h0.871c0.578,0,0.905,0.184,0.905,0.691
						c0.013,0.166-0.048,0.329-0.163,0.447c-0.117,0.119-0.278,0.182-0.443,0.172l0.62,1.014h-0.482l-0.563-0.991h-0.287v0.991
						h-0.46L103.281,11.33z M103.74,12.297h0.412c0.26,0,0.459-0.037,0.459-0.32c0-0.249-0.267-0.288-0.476-0.288h-0.397
						L103.74,12.297z"/>
					<path id="Path_2_" fill="#AC1E2D" d="M83.555,27.425h-2.262v2.81h2.262c1.252,0,1.209-0.442,1.209-1.621
						C84.764,27.687,84.515,27.425,83.555,27.425z"/>
					<path id="Shape_1_" fill="#AC1E2D" d="M36.375,35.289H27.92V24.965h8.347v2.26h-5.261v1.887h4.938v1.915h-4.938v2.011h5.369
						V35.289z M45.982,35.289h-7.978V24.965h3.109v7.933h4.869V35.289z M55.877,35.289h-8.445V24.965h8.347v2.26h-5.261v1.887h4.938
						v1.915h-4.938v2.011h5.359V35.289z M67.415,31.681c0,1.129-0.017,2.147-1.077,2.933c-1.061,0.786-2.355,0.758-3.714,0.758
						c-3.185,0-5.509-0.138-5.509-3.916v-2.661c0-3.417,2.07-3.917,5.509-3.917c3.222,0,4.713,0.29,4.774,3.387v0.4h-3.221v-0.4
						c-0.111-0.922-0.845-0.99-1.903-0.99c-1.781,0-1.952,0.48-1.952,1.955v1.613c0,1.544,0.076,2.137,1.952,2.137
						c1.293,0,1.919-0.084,1.919-1.295v-0.312h3.222V31.681z M77.119,27.355h-3.081v7.934h-3.059V27.36h-2.938v-2.396h9.088
						L77.119,27.355z M87.728,33.208v2.073h-2.991v-1.446c0.029-0.772-0.329-1.295-1.225-1.295h-2.306v2.749h-2.991V24.965h5.767
						c2.584,0.041,3.854,0.551,3.854,3.126c0,1.722,0,2.726-2.122,3.18v0.102c1.229,0.051,2.022,0.671,2.022,1.843L87.728,33.208z
						 M92.74,35.281h-3.199V24.965h3.207L92.74,35.281z M104.397,31.674c0,1.129-0.017,2.147-1.045,2.934
						c-1.028,0.785-2.287,0.758-3.604,0.758c-3.091,0-5.346-0.139-5.346-3.918v-2.653c0-3.417,2.014-3.917,5.346-3.917
						c3.118,0,4.572,0.29,4.632,3.387v0.4h-3.108v-0.4c-0.106-0.922-0.819-0.99-1.841-0.99c-1.727,0-1.895,0.48-1.895,1.955v1.613
						c0,1.544,0.076,2.137,1.895,2.137c1.256,0,1.861-0.084,1.861-1.295v-0.312h3.121L104.397,31.674z M110.756,16.856H99.383v1.756
						c0,1.405-1.367,3.249-3.539,3.26c-1.342,0-78.074,0-79.425,0v13.104c0.028,2.062,1.719,3.712,3.778,3.687h90.559
						c2.059,0.024,3.748-1.625,3.775-3.687V20.543C114.502,18.482,112.813,16.833,110.756,16.856z"/>
					<path id="Path_3_" fill="#231F20" d="M60.335,7.893c-1.969,0-2.613,0.208-2.668,2.288v3.163c0.056,2.098,0.7,2.309,2.668,2.309
						s2.671-0.208,2.671-2.309v-3.167C63.006,8.096,62.307,7.893,60.335,7.893z"/>
					<path id="Shape_2_" fill="#231F20" d="M16.402,18.844H6.811V4.834h3.749v10.758h5.842V18.844z M21.867,18.844h-3.74V4.834h3.74
						V18.844z M38.016,18.844h-6.374L27.679,8.083h-0.149l0.23,10.761h-3.747V4.834h6.319l4.021,10.758h0.156l-0.23-10.758h3.74
						L38.016,18.844z M52.455,13.957c0,1.53-0.019,2.913-1.29,3.978c-1.271,1.065-2.826,1.026-4.451,1.026
						c-3.813,0-6.6-0.187-6.6-5.292v-3.642c0-4.634,2.487-5.306,6.6-5.306c3.853,0,5.646,0.391,5.722,4.602v0.543h-3.853v-0.55
						c-0.131-1.251-1.009-1.346-2.28-1.346c-2.132,0-2.337,0.655-2.337,2.652v2.184c0,2.094,0.092,2.896,2.337,2.896
						c1.55,0,2.303-0.113,2.303-1.755v-0.41h3.853L52.455,13.957z M66.813,13.826c0,4.314-2.691,5.135-6.489,5.135
						c-3.797,0-6.487-0.821-6.487-5.135V9.859c0-4.316,2.692-5.138,6.487-5.138s6.489,0.821,6.489,5.138V13.826z M78.096,18.851
						h-9.736V4.834h3.801v10.758h5.94L78.096,18.851z M93.654,18.851h-6.373L83.328,8.083h-0.15l0.23,10.761h-3.753V4.834h6.319
						l4.031,10.758h0.147L89.924,4.834h3.739L93.654,18.851z M99.71,4.832c0-1.999-1.688-3.628-3.763-3.628H4.831
						c-2.072,0-3.763,1.629-3.763,3.628v13.75c0,1.999,1.688,3.625,3.763,3.625h91.121c2.073,0,3.764-1.627,3.764-3.625L99.71,4.832
						z"/>
				</g>
			</g>
			<path id="Shape_3_" fill="#171717" d="M104.104,11.436c1.136,0.028,2.037,0.968,2.018,2.106c-0.018,1.138-0.949,2.048-2.084,2.04
				c-1.137-0.009-2.053-0.935-2.053-2.073c-0.007-0.561,0.216-1.1,0.616-1.491C103.001,11.626,103.545,11.416,104.104,11.436z
				 M104.104,15.122c0.662,0.025,1.272-0.355,1.543-0.96c0.271-0.605,0.147-1.315-0.313-1.793c-0.459-0.478-1.162-0.628-1.775-0.38
				c-0.614,0.248-1.017,0.846-1.016,1.509c-0.018,0.426,0.14,0.84,0.434,1.148c0.295,0.308,0.701,0.482,1.127,0.483V15.122z
				 M103.281,12.33h0.871c0.578,0,0.905,0.184,0.905,0.691c0.013,0.166-0.048,0.329-0.163,0.447
				c-0.117,0.119-0.278,0.182-0.443,0.172l0.62,1.014h-0.482l-0.563-0.991h-0.287v0.991h-0.46L103.281,12.33z M103.74,13.297h0.412
				c0.26,0,0.459-0.037,0.459-0.32c0-0.249-0.267-0.288-0.476-0.288h-0.397L103.74,13.297z"/>
			<path id="Path_4_" fill="#AC1E2D" d="M83.555,28.425h-2.262v2.81h2.262c1.252,0,1.209-0.442,1.209-1.621
				C84.764,28.687,84.515,28.425,83.555,28.425z"/>
			<path id="Shape_4_" fill="#AC1E2D" d="M36.375,36.289H27.92V25.965h8.347v2.26h-5.261v1.887h4.938v1.915h-4.938v2.011h5.369
				V36.289z M45.982,36.289h-7.978V25.965h3.109v7.933h4.869V36.289z M55.877,36.289h-8.445V25.965h8.347v2.26h-5.261v1.887h4.938
				v1.915h-4.938v2.011h5.359V36.289z M67.415,32.681c0,1.129-0.017,2.147-1.077,2.933c-1.061,0.786-2.355,0.758-3.714,0.758
				c-3.185,0-5.509-0.138-5.509-3.916v-2.661c0-3.417,2.07-3.917,5.509-3.917c3.222,0,4.713,0.29,4.774,3.387v0.4h-3.221v-0.4
				c-0.111-0.922-0.845-0.99-1.903-0.99c-1.781,0-1.952,0.48-1.952,1.955v1.613c0,1.544,0.076,2.137,1.952,2.137
				c1.293,0,1.919-0.084,1.919-1.295v-0.312h3.222V32.681z M77.119,28.355h-3.081v7.934h-3.059V28.36h-2.938v-2.396h9.088
				L77.119,28.355z M87.728,34.208v2.073h-2.991v-1.446c0.029-0.772-0.329-1.295-1.225-1.295h-2.306v2.749h-2.991V25.965h5.767
				c2.584,0.041,3.854,0.551,3.854,3.126c0,1.722,0,2.726-2.122,3.18v0.102c1.229,0.051,2.022,0.671,2.022,1.843L87.728,34.208z
				 M92.74,36.281h-3.199V25.965h3.207L92.74,36.281z M104.397,32.674c0,1.129-0.017,2.147-1.045,2.934
				c-1.028,0.785-2.287,0.758-3.604,0.758c-3.091,0-5.346-0.139-5.346-3.918v-2.653c0-3.417,2.014-3.917,5.346-3.917
				c3.118,0,4.572,0.29,4.632,3.387v0.4h-3.108v-0.4c-0.106-0.922-0.819-0.99-1.841-0.99c-1.727,0-1.895,0.48-1.895,1.955v1.613
				c0,1.544,0.076,2.137,1.895,2.137c1.256,0,1.861-0.084,1.861-1.295v-0.312h3.121L104.397,32.674z M110.756,17.856H99.383v1.756
				c0,1.405-1.367,3.249-3.539,3.26c-1.342,0-78.074,0-79.425,0v13.104c0.028,2.062,1.719,3.712,3.778,3.687h90.559
				c2.059,0.024,3.748-1.625,3.775-3.687V21.543C114.502,19.482,112.813,17.833,110.756,17.856z"/>
			<path id="Path_5_" fill="#231F20" d="M60.335,8.893c-1.969,0-2.613,0.208-2.668,2.288v3.163c0.056,2.098,0.7,2.309,2.668,2.309
				s2.671-0.208,2.671-2.309v-3.167C63.006,9.096,62.307,8.893,60.335,8.893z"/>
			<path id="Shape_5_" fill="#231F20" d="M16.402,19.844H6.811V5.834h3.749v10.758h5.842V19.844z M21.867,19.844h-3.74V5.834h3.74
				V19.844z M38.016,19.844h-6.374L27.679,9.083h-0.149l0.23,10.761h-3.747V5.834h6.319l4.021,10.758h0.156l-0.23-10.758h3.74
				L38.016,19.844z M52.455,14.957c0,1.53-0.019,2.913-1.29,3.978c-1.271,1.065-2.826,1.026-4.451,1.026
				c-3.813,0-6.6-0.187-6.6-5.292v-3.642c0-4.634,2.487-5.306,6.6-5.306c3.853,0,5.646,0.391,5.722,4.602v0.543h-3.853v-0.55
				c-0.131-1.251-1.009-1.346-2.28-1.346c-2.132,0-2.337,0.655-2.337,2.652v2.184c0,2.094,0.092,2.896,2.337,2.896
				c1.55,0,2.303-0.113,2.303-1.755v-0.41h3.853L52.455,14.957z M66.813,14.826c0,4.314-2.691,5.135-6.489,5.135
				c-3.797,0-6.487-0.821-6.487-5.135v-3.966c0-4.316,2.692-5.138,6.487-5.138s6.489,0.821,6.489,5.138V14.826z M78.096,19.851
				h-9.736V5.834h3.801v10.758h5.94L78.096,19.851z M93.654,19.851h-6.373L83.328,9.083h-0.15l0.23,10.761h-3.753V5.834h6.319
				l4.031,10.758h0.147L89.924,5.834h3.739L93.654,19.851z M99.71,5.832c0-1.999-1.688-3.628-3.763-3.628H4.831
				c-2.072,0-3.763,1.629-3.763,3.628v13.75c0,1.999,1.688,3.625,3.763,3.625h91.121c2.073,0,3.764-1.627,3.764-3.625L99.71,5.832z"
				/>
		</g>
	</g>
</g>
</svg>
