<?xml version="1.0" encoding="utf-8"?>
<!-- Generator: Adobe Illustrator 13.0.0, SVG Export Plug-In . SVG Version: 6.00 Build 14948)  -->
<!DOCTYPE svg PUBLIC "-//W3C//DTD SVG 1.1//EN" "http://www.w3.org/Graphics/SVG/1.1/DTD/svg11.dtd">
<svg version="1.1" id="Layer_1" xmlns="http://www.w3.org/2000/svg" xmlns:xlink="http://www.w3.org/1999/xlink" x="0px" y="0px"
	 width="416px" height="177px" viewBox="0.5 614.5 416 177" enable-background="new 0.5 614.5 416 177" xml:space="preserve">
<g>
	<g>
		<path d="M71.801,629.51c1.688-0.422,3.376-0.633,5.065-0.844l7.808,44.739c-1.688,0.211-3.376,0.422-5.065,0.844L71.801,629.51z
			 M69.901,678.893c1.688-1.267,3.376-2.111,5.276-2.955l-22.581-39.463c-1.688,1.055-3.588,1.898-5.276,2.954L69.901,678.893z
			 M57.028,703.583c0-1.688,0.211-3.376,0.422-4.854H12.711c-0.211,1.479-0.211,2.955-0.211,4.644c0,1.478,0,2.954,0.211,4.432
			H57.45C57.239,706.326,57.028,705.061,57.028,703.583 M117.806,703.583c0,16.883-13.506,30.389-30.389,30.389
			c-14.984,0-27.435-10.974-29.967-25.324l-42.207,15.406c0.844,3.376,2.11,6.542,3.376,9.496l41.785-15.405l-33.977,29.123
			c2.11,2.954,4.643,5.908,7.175,8.652l31.866-27.013l-20.893,36.509c3.376,2.321,6.753,4.432,10.552,6.12l19.626-34.398
			l-6.753,39.041c4.221,1.056,8.441,1.899,12.873,2.321l6.331-36.509l6.331,36.509c4.643-0.422,9.075-1.266,13.506-2.321
			l-5.909-33.766l17.094,29.756c4.643-2.11,9.074-4.643,13.295-7.808l-15.617-27.435l24.058,20.259
			c3.799-3.799,7.175-8.02,10.13-12.451l-21.526-18.148l26.168,9.707c2.532-5.064,4.221-10.34,5.487-16.038l-23.003-8.441h24.48
			c0.211-2.743,0.422-5.698,0.422-8.652c0-3.377-0.211-6.753-0.633-9.919h-45.372C117.173,696.619,117.806,699.996,117.806,703.583
			 M57.873,696.619c0.633-2.744,1.688-5.276,2.954-7.598L18.62,673.616c-1.055,2.532-1.899,5.065-2.744,7.597L57.873,696.619z
			 M143.975,653.779l-34.399,28.911c0.844,0.845,1.688,1.899,2.322,2.743l34.398-28.911
			C145.663,655.678,144.819,654.623,143.975,653.779 M126.881,639.217c-1.267-0.844-2.533-1.477-3.588-2.109l-22.581,39.041
			c1.266,0.633,2.532,1.266,3.799,2.11L126.881,639.217z M66.947,681.213l-34.609-29.122c-1.688,1.688-3.166,3.587-4.643,5.487
			L62.093,686.7C63.57,684.59,65.047,682.902,66.947,681.213 M90.583,673.405c1.477,0.211,2.954,0.422,4.432,0.844l7.808-44.739
			c-1.477-0.211-2.955-0.633-4.432-0.844L90.583,673.405z"/>
		<g>
			<path d="M197.366,742.413v-77.661h28.279c9.497,0,16.882,2.322,22.37,6.965c5.276,4.643,8.019,11.185,8.019,19.415
				c0,4.432-1.055,8.441-3.166,12.029s-4.854,6.542-8.23,8.863l18.993,30.389H241.05l-13.506-24.901h-10.34v24.901H197.366z
				 M222.69,679.736h-5.909v22.58h5.698c8.863,0,13.295-3.799,13.295-11.396C235.985,683.535,231.554,679.736,222.69,679.736z"/>
			<path d="M281.569,742.413v-60.989h-23.847v-16.672h68.375v16.672H302.25v60.989H281.569z"/>
			<path d="M326.52,742.413l27.012-40.308l-25.112-37.142h24.269l13.718,23.847l13.506-23.847h23.425l-25.324,37.985l26.802,39.464
				h-24.27l-15.616-26.379l-14.772,26.379H326.52z"/>
		</g>
	</g>
</g>
</svg>
